PathFileType	4	(X/Y/Z)	C:\Users\dbl\Desktop\LZH\BX\Trimmed_bx_n_10_1801.trc
DataRate	CameraRate	NumFrames	NumMarkers	Units	OrigDataRate	OrigDataStartFrame	OrigNumFrames
50.00	50.00	       7	43	mm	50.00	50	       394
Frame#	Time	Top.Head			R.Acromium			L.Acromium			Sternum			R.ASIS			L.ASIS			V.Sacral			R.Thigh.Upper			R.Thigh.Front			R.Thigh.Rear			R.Knee.Lat			R.Knee.Med			R.Shank.Upper			R.Shank.Front			R.Shank.Rear			R.Ankle.Lat			R.Midfoot.Lat			R.Toe.Lat			R.Toe.Tip			R.Toe.Med			R.Ankle.Med			R.Midfoot.Sup			R.Heel			L.Thigh.Upper			L.Thigh.Front			L.Thigh.Rear			L.Knee.Lat			L.Knee.Med			L.Shank.Upper			L.Shank.Front			L.Shank.Rear			L.Ankle.Lat			L.Midfoot.Lat			L.Toe.Lat			L.Toe.Tip			L.Toe.Med			L.Ankle.Med			L.Midfoot.Sup			L.Heel			origin1 front left			origin2 front right			origin 3 back right			origin 4 back leftt			
		X1	Y1	Z1	X2	Y2	Z2	X3	Y3	Z3	X4	Y4	Z4	X5	Y5	Z5	X6	Y6	Z6	X7	Y7	Z7	X8	Y8	Z8	X9	Y9	Z9	X10	Y10	Z10	X11	Y11	Z11	X12	Y12	Z12	X13	Y13	Z13	X14	Y14	Z14	X15	Y15	Z15	X16	Y16	Z16	X17	Y17	Z17	X18	Y18	Z18	X19	Y19	Z19	X20	Y20	Z20	X21	Y21	Z21	X22	Y22	Z22	X23	Y23	Z23	X24	Y24	Z24	X25	Y25	Z25	X26	Y26	Z26	X27	Y27	Z27	X28	Y28	Z28	X29	Y29	Z29	X30	Y30	Z30	X31	Y31	Z31	X32	Y32	Z32	X33	Y33	Z33	X34	Y34	Z34	X35	Y35	Z35	X36	Y36	Z36	X37	Y37	Z37	X38	Y38	Z38	X39	Y39	Z39	X40	Y40	Z40	X41	Y41	Z41	X42	Y42	Z42	X43	Y43	Z43	

50	0.980	-603.70935	264.78421	1832.28479	-625.88544	79.08569	1534.80481	-650.27448	435.30862	1531.38892	-537.36279	262.14133	1351.03638	-529.98590	135.31651	1028.75122	-515.06683	363.37814	1036.66882	-723.54865	256.91754	1043.54346	-584.67859	83.36105	864.82990	-514.11487	153.60828	848.07202	-602.18408	94.91351	737.96912	-650.07086	118.56174	603.47620	-630.69543	227.05032	561.58844	-680.62787	118.32635	541.71014	-601.22992	163.86922	534.23724	-719.59235	118.80568	475.95724	-690.85138	142.59196	214.46350	-614.84381	85.49299	165.61398	-566.52625	66.30573	163.15016	-489.46167	111.24133	158.82141	-537.64368	161.18913	164.56721	-646.40875	221.39804	218.33420	-602.15735	197.94249	170.18855	-729.87170	208.00883	170.74336	-597.76941	442.79648	873.73199	-513.57568	372.26532	841.96423	-622.20209	431.23877	754.88623	-654.81702	410.06177	628.27942	-614.85370	307.18167	575.06952	-660.54596	408.92188	562.54321	-601.85602	361.91049	545.17731	-711.02899	412.23898	509.92691	-682.47461	407.10269	214.66541	-588.76019	458.61411	164.79535	-550.13928	466.50339	161.24893	-489.15921	419.57434	167.01320	-528.08643	377.09875	176.48503	-647.69592	317.11676	207.64337	-598.98773	337.60318	168.50374	-737.87115	337.70691	163.81224	-443.60654	448.51282	147.03235	-450.54840	75.03222	144.12769	-806.42242	82.76241	142.34081	-799.54236	456.96136	145.33359	
51	1.000	-605.47406	264.73590	1832.10278	-625.28937	79.09441	1534.81653	-649.93567	435.35339	1531.37781	-537.07312	262.28369	1351.04297	-529.81726	135.36725	1028.69189	-514.99243	363.44678	1036.59912	-723.46863	256.99301	1043.60120	-584.55237	83.44928	864.72980	-514.02808	153.68143	848.00323	-602.05756	95.09354	737.87360	-650.07971	118.56290	603.54065	-630.70239	227.04837	561.63428	-680.61804	118.35690	541.72266	-601.19275	163.91454	534.24084	-719.58966	118.82837	475.95844	-690.72839	142.55351	214.57562	-614.83508	85.50269	165.62076	-566.56348	66.35661	163.13583	-489.47968	111.24313	158.82561	-537.63287	161.22946	164.56477	-646.37946	221.34145	218.29446	-602.17841	197.96510	170.12854	-729.86420	208.02846	170.76050	-597.78192	442.82913	873.71100	-513.55389	372.30618	841.95105	-622.18384	431.24042	754.85986	-654.80908	410.11957	628.30774	-614.84613	307.22183	575.07129	-660.57288	408.95425	562.55743	-601.83130	361.92178	545.17877	-711.03839	412.25699	509.93347	-682.46014	407.08765	214.65359	-588.72949	458.63461	164.81435	-550.14862	466.50488	161.23717	-489.14105	419.59308	167.02487	-528.07123	377.13617	176.52170	-647.66162	317.03516	207.69762	-598.98029	337.59097	168.49820	-737.84052	337.69656	163.83144	-443.60306	448.53354	147.00053	-450.54538	75.02781	144.13448	-806.41724	82.75956	142.34999	-799.53339	456.91321	145.35448	
52	1.020	-607.09967	264.65872	1831.89905	-624.76416	79.12697	1534.79797	-649.59204	435.38217	1531.36658	-536.74921	262.39066	1351.05615	-529.67322	135.45430	1028.58533	-514.87323	363.53192	1036.55127	-723.37500	257.06293	1043.65552	-584.43073	83.58533	864.61353	-513.90607	153.74779	847.94373	-601.89838	95.28478	737.77631	-650.07782	118.55579	603.61127	-630.71533	227.04251	561.69897	-680.63068	118.38799	541.72900	-601.15399	163.96185	534.24719	-719.60486	118.83648	475.98077	-690.72949	142.56889	214.54678	-614.83289	85.50648	165.62466	-566.59698	66.39639	163.10301	-489.48187	111.23621	158.81958	-537.63123	161.25948	164.54968	-646.29797	221.31010	218.33955	-602.19934	197.98373	170.07597	-729.86456	208.01570	170.78886	-597.76093	442.85266	873.67603	-513.51038	372.33594	841.95111	-622.15686	431.30536	754.85846	-654.78564	410.17889	628.34521	-614.80566	307.23517	575.08533	-660.59698	408.97147	562.57825	-601.85632	361.90735	545.17200	-711.04547	412.29214	509.93927	-682.45557	407.05106	214.62103	-588.69983	458.63794	164.80804	-550.15289	466.51224	161.24057	-489.15219	419.61465	167.05814	-528.06818	377.18781	176.56793	-647.62537	316.95877	207.74225	-598.97052	337.60129	168.43245	-737.80695	337.67523	163.84610	-443.56924	448.55536	146.99055	-450.54303	75.03300	144.12625	-806.40887	82.77306	142.33501	-799.50824	456.90750	145.28995	
53	1.040	-608.61206	264.55014	1831.67639	-624.30048	79.18775	1534.75220	-649.21722	435.41312	1531.36047	-536.36340	262.43387	1351.02954	-529.54242	135.56732	1028.46509	-514.73450	363.63138	1036.54041	-723.26892	257.10608	1043.70398	-584.31342	83.74581	864.49780	-513.78265	153.78906	847.90582	-601.73663	95.46138	737.68256	-650.06219	118.56194	603.66473	-630.73834	227.02924	561.76105	-680.65387	118.40641	541.74683	-601.12921	163.99648	534.25348	-719.62811	118.85040	476.00681	-690.81866	142.60927	214.43755	-614.84204	85.50027	165.62309	-566.61444	66.41170	163.07112	-489.44476	111.22694	158.80113	-537.63037	161.25899	164.52620	-646.18152	221.33087	218.44713	-602.20874	197.98792	170.05461	-729.87115	207.98541	170.82394	-597.69244	442.87924	873.62512	-513.44824	372.37982	841.94019	-622.10925	431.42468	754.86609	-654.75342	410.24875	628.36359	-614.73071	307.24002	575.10583	-660.61572	408.96317	562.58191	-601.90472	361.87625	545.11975	-711.05249	412.34280	509.93726	-682.45624	407.02267	214.58742	-588.67792	458.63153	164.79214	-550.14813	466.52759	161.25871	-489.17978	419.63217	167.09125	-528.08447	377.23001	176.59596	-647.61310	316.94574	207.75351	-598.94836	337.62222	168.35681	-737.78357	337.64935	163.84583	-443.52151	448.57132	147.00092	-450.53537	75.04134	144.11255	-806.39728	82.78962	142.31615	-799.48962	456.91367	145.21295	
54	1.060	-610.06580	264.44128	1831.46802	-623.85144	79.26050	1534.70508	-648.80310	435.47049	1531.35217	-535.95117	262.41211	1350.95337	-529.40857	135.68616	1028.36304	-514.60315	363.72937	1036.55981	-723.16644	257.11429	1043.74951	-584.19861	83.88215	864.40613	-513.68536	153.79782	847.88855	-601.59821	95.59449	737.59723	-650.03705	118.60110	603.68323	-630.77551	227.00520	561.79413	-680.67792	118.41734	541.77936	-601.12164	164.01785	534.25775	-719.64484	118.88030	476.01538	-690.91296	142.63499	214.35130	-614.84906	85.49311	165.61882	-566.60822	66.39484	163.06136	-489.38037	111.22056	158.77153	-537.62646	161.23825	164.52083	-646.05695	221.39139	218.55933	-602.20605	197.98141	170.06337	-729.87323	207.97354	170.86382	-597.59326	442.92001	873.57227	-513.37457	372.44971	841.90125	-622.04425	431.54996	754.87006	-654.71307	410.34814	628.36224	-614.65509	307.25574	575.11975	-660.64569	408.94553	562.56622	-601.93073	361.87418	545.05463	-711.05597	412.40057	509.92438	-682.45172	407.00833	214.57837	-588.68420	458.63031	164.79047	-550.12396	466.54565	161.28424	-489.20569	419.63672	167.10526	-528.11493	377.25320	176.58910	-647.62653	317.00342	207.73193	-598.92126	337.64172	168.31145	-737.76984	337.63901	163.83844	-443.48935	448.57147	147.02902	-450.51935	75.04318	144.11166	-806.37872	82.79308	142.30800	-799.48047	456.92178	145.18205	
55	1.080	-611.48340	264.36133	1831.31079	-623.39618	79.33979	1534.67261	-648.37018	435.55786	1531.32861	-535.58020	262.35791	1350.84351	-529.25708	135.79285	1028.30066	-514.48370	363.81000	1036.58801	-723.07568	257.10107	1043.79651	-584.08606	83.96121	864.35138	-513.63129	153.78979	847.86938	-601.48804	95.66460	737.53735	-650.01007	118.66750	603.68042	-630.82806	226.96931	561.77972	-680.70831	118.43391	541.81781	-601.11816	164.04185	534.27362	-719.64636	118.91774	476.00311	-690.97314	142.64836	214.31456	-614.84442	85.49516	165.61884	-566.57910	66.35261	163.07845	-489.32761	111.21380	158.73914	-537.62250	161.21744	164.54056	-646.00012	221.43021	218.59009	-602.19482	197.97472	170.08258	-729.86450	207.99084	170.88846	-597.49854	442.96848	873.53290	-513.31073	372.53430	841.83130	-621.97937	431.64450	754.86432	-654.67749	410.45880	628.34247	-614.60858	307.27386	575.11908	-660.69702	408.94650	562.55420	-601.90680	361.93582	545.04041	-711.05682	412.45410	509.89761	-682.44189	406.99588	214.59596	-588.72754	458.63995	164.80302	-550.07587	466.55957	161.30225	-489.21756	419.62350	167.08763	-528.13562	377.25568	176.55524	-647.65381	317.09763	207.69080	-598.91864	337.65836	168.29381	-737.76624	337.65805	163.83980	-443.48514	448.55301	147.07103	-450.50537	75.03849	144.12799	-806.35852	82.78556	142.30484	-799.46887	456.94040	145.19539	
56	1.100	-612.84021	264.29367	1831.22839	-622.96381	79.43768	1534.65173	-647.96301	435.65533	1531.28735	-535.29596	262.31223	1350.70911	-529.08496	135.87392	1028.28857	-514.36908	363.87064	1036.60144	-722.98102	257.09698	1043.84888	-583.97455	83.99339	864.31659	-513.61432	153.78784	847.82391	-601.40643	95.67645	737.51868	-649.98767	118.73082	603.67957	-630.89258	226.92389	561.71472	-680.74561	118.47262	541.84241	-601.10095	164.08536	534.31158	-719.63525	118.95849	475.98776	-690.98566	142.66319	214.31721	-614.83997	85.50035	165.62297	-566.54004	66.30615	163.10553	-489.31769	111.20663	158.71545	-537.62030	161.19077	164.56947	-646.05371	221.40756	218.49554	-602.17889	197.97105	170.09840	-729.84906	208.01903	170.87947	-597.43427	443.01077	873.50867	-513.27075	372.61078	841.73779	-621.92725	431.70309	754.84290	-654.65869	410.52716	628.29730	-614.58777	307.28610	575.10461	-660.75256	408.98105	562.55731	-601.85083	362.04102	545.09186	-711.06134	412.49561	509.85693	-682.43829	406.98526	214.61526	-588.78876	458.65704	164.81331	-550.01764	466.56656	161.30174	-489.21082	419.59836	167.04193	-528.12506	377.23785	176.51851	-647.67407	317.18790	207.65398	-598.95764	337.67819	168.29041	-737.77820	337.69919	163.85947	-443.49249	448.53549	147.10669	-450.50754	75.03539	144.14354	-806.34802	82.77854	142.29826	-799.44769	456.97165	145.21278	
